<svg xmlns="http://www.w3.org/2000/svg" viewBox="0 0 520 360" width="520" height="360">
<defs>
  <linearGradient id="av-bg" x1="0" y1="0" x2="1" y2="1">
    <stop offset="0%" stop-color="#003580"/>
    <stop offset="60%" stop-color="#004A99"/>
    <stop offset="100%" stop-color="#1565c0"/>
  </linearGradient>
  <radialGradient id="av-glow" cx="50%" cy="50%" r="50%">
    <stop offset="0%" stop-color="rgba(132,189,96,0.2)"/>
    <stop offset="100%" stop-color="rgba(0,0,0,0)"/>
  </radialGradient>
  <clipPath id="av-clip"><rect width="520" height="360" rx="16"/></clipPath>
</defs>
<g clip-path="url(#av-clip)">
  <rect width="520" height="360" fill="url(#av-bg)"/>
  <rect width="520" height="360" fill="url(#av-glow)"/>

  <!-- Background concentric circles suggesting reach/coverage -->
  <circle cx="260" cy="180" r="200" fill="none" stroke="rgba(132,189,96,0.08)" stroke-width="40"/>
  <circle cx="260" cy="180" r="140" fill="none" stroke="rgba(132,189,96,0.08)" stroke-width="30"/>
  <circle cx="260" cy="180" r="80" fill="none" stroke="rgba(132,189,96,0.1)" stroke-width="20"/>

  <!-- Kenya silhouette (simplified — recognizable outline) -->
  <path d="M200,80 L230,60 L270,58 L310,70 L340,90 L360,130 L355,170 L340,200 L320,240 L300,280 L280,300 L260,310 L240,300 L220,275 L210,250 L200,220 L195,190 L190,160 L185,130 Z" fill="rgba(255,255,255,0.06)" stroke="rgba(255,255,255,0.15)" stroke-width="1.5"/>

  <!-- Sub-county nodes (47 counties — represented as clusters) -->
  <!-- Nairobi cluster (center) -->
  <circle cx="260" cy="190" r="18" fill="#E8845A" opacity="0.9"/>
  <circle cx="260" cy="190" r="26" fill="#E8845A" opacity="0.2"/>
  <text x="260" y="195" font-family="Arial,sans-serif" font-size="7" text-anchor="middle" fill="white" font-weight="bold">NBI</text>

  <!-- County nodes scattered -->
  <circle cx="218" cy="148" r="8" fill="#84BD60" opacity="0.85"/><!-- Kiambu -->
  <circle cx="300" cy="145" r="7" fill="#84BD60" opacity="0.8"/><!-- Muranga -->
  <circle cx="240" cy="224" r="7" fill="#84BD60" opacity="0.8"/><!-- Kajiado -->
  <circle cx="284" cy="226" r="6" fill="#84BD60" opacity="0.75"/><!-- Machakos -->
  <circle cx="196" cy="190" r="7" fill="#38bdf8" opacity="0.8"/><!-- Nakuru -->
  <circle cx="314" cy="186" r="7" fill="#38bdf8" opacity="0.8"/><!-- Embu -->
  <circle cx="228" cy="165" r="5" fill="#84BD60" opacity="0.7"/>
  <circle cx="292" cy="170" r="5" fill="#84BD60" opacity="0.7"/>
  <circle cx="255" cy="230" r="5" fill="#38bdf8" opacity="0.7"/>
  <circle cx="274" cy="158" r="6" fill="#84BD60" opacity="0.75"/>
  <circle cx="245" cy="148" r="5" fill="#38bdf8" opacity="0.65"/>
  <circle cx="318" cy="210" r="5" fill="#84BD60" opacity="0.65"/>
  <circle cx="204" cy="210" r="5" fill="#84BD60" opacity="0.65"/>

  <!-- Connecting lines (network effect) -->
  <line x1="260" y1="190" x2="218" y2="148" stroke="rgba(132,189,96,0.3)" stroke-width="1"/>
  <line x1="260" y1="190" x2="300" y2="145" stroke="rgba(132,189,96,0.3)" stroke-width="1"/>
  <line x1="260" y1="190" x2="196" y2="190" stroke="rgba(56,189,248,0.25)" stroke-width="1"/>
  <line x1="260" y1="190" x2="314" y2="186" stroke="rgba(56,189,248,0.25)" stroke-width="1"/>
  <line x1="260" y1="190" x2="240" y2="224" stroke="rgba(132,189,96,0.25)" stroke-width="1"/>
  <line x1="260" y1="190" x2="284" y2="226" stroke="rgba(132,189,96,0.25)" stroke-width="1"/>

  <!-- ── Stats overlay (top-left) ── -->
  <rect x="20" y="20" width="165" height="110" rx="12" fill="rgba(255,255,255,0.06)" stroke="rgba(255,255,255,0.12)" stroke-width="1"/>
  <text x="40" y="48" font-family="Georgia,serif" font-size="30" font-weight="bold" fill="white">850+</text>
  <text x="40" y="64" font-family="Arial,sans-serif" font-size="10" fill="rgba(255,255,255,0.6)">Verified HCAs</text>
  <rect x="40" y="70" width="100" height="1.5" fill="rgba(132,189,96,0.4)"/>
  <text x="40" y="88" font-family="Georgia,serif" font-size="22" font-weight="bold" fill="#84BD60">2,400+</text>
  <text x="40" y="102" font-family="Arial,sans-serif" font-size="10" fill="rgba(255,255,255,0.6)">Families Served</text>
  <text x="40" y="120" font-family="Arial,sans-serif" font-size="9" fill="rgba(132,189,96,0.7)">Est. 2021 · Nairobi, Kenya</text>

  <!-- ── Stats overlay (bottom-right) ── -->
  <rect x="335" y="250" width="165" height="90" rx="12" fill="rgba(255,255,255,0.06)" stroke="rgba(255,255,255,0.12)" stroke-width="1"/>
  <text x="355" y="278" font-family="Georgia,serif" font-size="28" font-weight="bold" fill="#E8845A">47</text>
  <text x="390" y="278" font-family="Arial,sans-serif" font-size="10" fill="rgba(255,255,255,0.5)" dy="0"> sub-counties</text>
  <rect x="355" y="284" width="120" height="1.5" fill="rgba(232,132,90,0.4)"/>
  <text x="355" y="303" font-family="Georgia,serif" font-size="22" font-weight="bold" fill="white">4.8★</text>
  <text x="355" y="320" font-family="Arial,sans-serif" font-size="10" fill="rgba(255,255,255,0.6)">Average care rating</text>
  <text x="355" y="334" font-family="Arial,sans-serif" font-size="9" fill="rgba(132,189,96,0.7)">97% placement success</text>

  <!-- ── Logo / branding ── -->
  <text x="20" y="348" font-family="Georgia,serif" font-size="16" font-weight="bold" fill="rgba(255,255,255,0.5)" letter-spacing="2">e-vive</text>
  <rect x="20" y="352" width="48" height="2" rx="1" fill="rgba(132,189,96,0.4)"/>
</g>
</svg>