<svg xmlns="http://www.w3.org/2000/svg" viewBox="0 0 600 500" width="600" height="500">
<defs>
  <linearGradient id="ah-bg" x1="0" y1="0" x2="1" y2="1">
    <stop offset="0%" stop-color="#003580"/>
    <stop offset="100%" stop-color="#004A99"/>
  </linearGradient>
  <linearGradient id="ah-card" x1="0" y1="0" x2="0" y2="1">
    <stop offset="0%" stop-color="rgba(255,255,255,0.12)"/>
    <stop offset="100%" stop-color="rgba(255,255,255,0.05)"/>
  </linearGradient>
  <linearGradient id="ah-floor" x1="0" y1="0" x2="0" y2="1">
    <stop offset="0%" stop-color="#002060"/>
    <stop offset="100%" stop-color="#001540"/>
  </linearGradient>
  <clipPath id="ah-clip"><rect width="600" height="500" rx="16"/></clipPath>
</defs>
<g clip-path="url(#ah-clip)">
  <rect width="600" height="500" fill="url(#ah-bg)"/>
  <!-- Floor -->
  <rect y="430" width="600" height="70" fill="url(#ah-floor)"/>
  <rect y="428" width="600" height="4" fill="rgba(132,189,96,0.4)"/>

  <!-- Background circles (decorative) -->
  <circle cx="480" cy="80" r="120" fill="rgba(132,189,96,0.06)"/>
  <circle cx="480" cy="80" r="80" fill="rgba(132,189,96,0.06)"/>
  <circle cx="100" cy="400" r="90" fill="rgba(232,132,90,0.06)"/>

  <!-- ── Stats cards floating (background) ── -->
  <rect x="380" y="160" width="190" height="80" rx="14" fill="url(#ah-card)" stroke="rgba(255,255,255,0.15)" stroke-width="1"/>
  <text x="400" y="192" font-family="Georgia,serif" font-size="28" font-weight="bold" fill="#84BD60">KES 45K+</text>
  <text x="400" y="212" font-family="Arial,sans-serif" font-size="11" fill="rgba(255,255,255,0.7)">Avg monthly earnings (top tier)</text>
  <rect x="385" y="225" width="100" height="3" rx="1.5" fill="rgba(132,189,96,0.5)"/>

  <rect x="380" y="260" width="190" height="76" rx="14" fill="url(#ah-card)" stroke="rgba(255,255,255,0.15)" stroke-width="1"/>
  <text x="400" y="292" font-family="Georgia,serif" font-size="26" font-weight="bold" fill="#E8845A">850+</text>
  <text x="400" y="310" font-family="Arial,sans-serif" font-size="11" fill="rgba(255,255,255,0.7)">Active HCAs on the platform</text>

  <rect x="380" y="356" width="190" height="76" rx="14" fill="url(#ah-card)" stroke="rgba(255,255,255,0.15)" stroke-width="1"/>
  <text x="400" y="388" font-family="Georgia,serif" font-size="26" font-weight="bold" fill="white">4.8★</text>
  <text x="400" y="406" font-family="Arial,sans-serif" font-size="11" fill="rgba(255,255,255,0.7)">Average care rating nationwide</text>

  <!-- Vertical accent line -->
  <rect x="368" y="160" width="4" height="272" rx="2" fill="rgba(132,189,96,0.35)"/>

  <!-- ── HCA figure (center-left) ── -->
  <!-- Floor shadow -->
  <ellipse cx="230" cy="444" rx="70" ry="14" fill="rgba(0,0,0,0.3)"/>
  <!-- Legs -->
  <rect x="198" y="350" width="26" height="104" rx="10" fill="#0d2d5c"/>
  <rect x="238" y="350" width="26" height="104" rx="10" fill="#0d2d5c"/>
  <!-- Shoes -->
  <ellipse cx="211" cy="456" rx="20" ry="8" fill="#0a1a35"/>
  <ellipse cx="251" cy="456" rx="20" ry="8" fill="#0a1a35"/>
  <!-- Body (teal scrubs) -->
  <rect x="172" y="185" width="118" height="178" rx="20" fill="#006064"/>
  <!-- Scrub detail -->
  <path d="M196,212 L231,230 L266,212" fill="rgba(255,255,255,0.08)"/>
  <!-- Name badge -->
  <rect x="182" y="228" width="34" height="22" rx="5" fill="white" opacity="0.9"/>
  <rect x="186" y="233" width="26" height="2" rx="1" fill="#004A99"/>
  <rect x="186" y="237" width="20" height="2" rx="1" fill="#84BD60"/>
  <rect x="186" y="241" width="14" height="2" rx="1" fill="#004A99" opacity="0.5"/>
  <!-- Pocket -->
  <rect x="244" y="228" width="30" height="22" rx="5" fill="rgba(0,0,0,0.1)"/>
  <path d="M248,230 Q259,225 270,230" fill="none" stroke="rgba(255,255,255,0.2)" stroke-width="1.5"/>
  <!-- Left arm (holding tablet) -->
  <path d="M172,210 Q148,250 140,290" stroke="#004d4d" stroke-width="30" fill="none" stroke-linecap="round"/>
  <!-- Tablet -->
  <rect x="100" y="265" width="72" height="96" rx="8" fill="#1a1a2e" stroke="rgba(255,255,255,0.2)" stroke-width="1.5"/>
  <rect x="106" y="272" width="60" height="80" rx="4" fill="#003580"/>
  <!-- App UI on tablet -->
  <rect x="110" y="276" width="52" height="6" rx="2" fill="#84BD60" opacity="0.8"/>
  <rect x="110" y="287" width="38" height="4" rx="1.5" fill="rgba(255,255,255,0.4)"/>
  <rect x="110" y="295" width="44" height="4" rx="1.5" fill="rgba(255,255,255,0.25)"/>
  <!-- Mini HCA profile card on tablet -->
  <rect x="110" y="305" width="52" height="38" rx="4" fill="rgba(255,255,255,0.08)" stroke="rgba(255,255,255,0.15)" stroke-width="0.5"/>
  <circle cx="120" cy="317" r="7" fill="#84BD60" opacity="0.8"/>
  <rect x="131" y="312" width="24" height="3" rx="1.5" fill="rgba(255,255,255,0.6)"/>
  <rect x="131" y="318" width="18" height="2.5" rx="1.2" fill="rgba(255,255,255,0.4)"/>
  <rect x="131" y="323" width="22" height="2.5" rx="1.2" fill="#84BD60" opacity="0.7"/>
  <!-- Green status dot on tablet -->
  <circle cx="154" cy="312" r="4" fill="#4caf50"/>
  <!-- Right arm (down, confident pose) -->
  <path d="M290,215 Q308,260 306,300" stroke="#004d4d" stroke-width="28" fill="none" stroke-linecap="round"/>
  <ellipse cx="305" cy="308" rx="18" ry="12" fill="#9A6428"/>
  <!-- Left hand on tablet -->
  <ellipse cx="138" cy="295" rx="16" ry="11" fill="#9A6428"/>
  <!-- Neck -->
  <rect x="218" y="168" width="26" height="26" rx="7" fill="#C68642"/>
  <!-- Head -->
  <ellipse cx="231" cy="144" rx="40" ry="44" fill="#C68642"/>
  <!-- Ears -->
  <ellipse cx="191" cy="147" rx="8" ry="11" fill="#B57A35"/>
  <ellipse cx="271" cy="147" rx="8" ry="11" fill="#B57A35"/>
  <!-- Hair — braids updo, confident -->
  <ellipse cx="231" cy="106" rx="38" ry="18" fill="#1a0a00"/>
  <circle cx="231" cy="94" rx="18" ry="18" fill="#1a0a00"/>
  <ellipse cx="204" cy="122" rx="12" ry="16" fill="#1a0a00"/>
  <ellipse cx="258" cy="122" rx="12" ry="16" fill="#1a0a00"/>
  <!-- Confident expression -->
  <ellipse cx="217" cy="138" rx="8" ry="7" fill="white"/>
  <ellipse cx="245" cy="138" rx="8" ry="7" fill="white"/>
  <circle cx="217" cy="138" r="5" fill="#1a0a00"/>
  <circle cx="245" cy="138" r="5" fill="#1a0a00"/>
  <circle cx="219" cy="136.5" r="1.7" fill="white" opacity="0.9"/>
  <circle cx="247" cy="136.5" r="1.7" fill="white" opacity="0.9"/>
  <path d="M206,127 Q217,120 224,125" stroke="#1a0a00" stroke-width="2.5" fill="none" stroke-linecap="round"/>
  <path d="M238,125 Q245,120 256,127" stroke="#1a0a00" stroke-width="2.5" fill="none" stroke-linecap="round"/>
  <ellipse cx="231" cy="154" rx="6" ry="4" fill="rgba(100,60,20,0.3)"/>
  <!-- Confident smile -->
  <path d="M218,166 Q231,178 244,166" stroke="rgba(100,60,20,0.5)" stroke-width="2.5" fill="none" stroke-linecap="round"/>

  <!-- ── Logo / branding ── -->
  <text x="36" y="56" font-family="Georgia,serif" font-size="28" font-weight="bold" fill="white" letter-spacing="2">e-vive</text>
  <rect x="36" y="62" width="80" height="3" rx="1.5" fill="#84BD60"/>
  <text x="36" y="82" font-family="Arial,sans-serif" font-size="11" fill="rgba(255,255,255,0.6)" letter-spacing="1">HOMECARE PLATFORM</text>

  <!-- Mint accent bottom -->
  <rect x="0" y="490" width="600" height="10" fill="#84BD60" opacity="0.3"/>
</g>
</svg>