<svg xmlns="http://www.w3.org/2000/svg" viewBox="0 0 480 420" width="480" height="420">
<defs>
  <linearGradient id="fs-bg" x1="0" y1="0" x2="0" y2="1">
    <stop offset="0%" stop-color="#f5ede0"/>
    <stop offset="100%" stop-color="#e0c9a8"/>
  </linearGradient>
  <linearGradient id="fs-floor" x1="0" y1="0" x2="0" y2="1">
    <stop offset="0%" stop-color="#c4a882"/>
    <stop offset="100%" stop-color="#9a7550"/>
  </linearGradient>
  <clipPath id="fs-clip"><rect width="480" height="420" rx="16"/></clipPath>
</defs>
<g clip-path="url(#fs-clip)">
  <rect width="480" height="420" fill="url(#fs-bg)"/>
  <rect y="330" width="480" height="90" fill="url(#fs-floor)"/>
  <rect y="328" width="480" height="5" fill="#b8956a" opacity="0.6"/>

  <!-- Window -->
  <rect x="320" y="30" width="140" height="200" rx="5" fill="#ddf0ff" opacity="0.85" stroke="#c4a882" stroke-width="2"/>
  <line x1="390" y1="30" x2="390" y2="230" stroke="#c4a882" stroke-width="2"/>
  <line x1="320" y1="130" x2="460" y2="130" stroke="#c4a882" stroke-width="2"/>
  <!-- light beam -->
  <polygon points="460,30 460,230 290,280 290,0" fill="rgba(255,240,180,0.12)"/>

  <!-- Small table -->
  <rect x="60" y="270" width="100" height="65" rx="5" fill="#a8855a"/>
  <rect x="52" y="265" width="116" height="10" rx="4" fill="#c4a882"/>
  <rect x="65" y="325" width="10" height="20" rx="3" fill="#9a7550"/>
  <rect x="140" y="325" width="10" height="20" rx="3" fill="#9a7550"/>
  <!-- Tea cup on table -->
  <rect x="88" y="240" width="24" height="20" rx="5" fill="white" opacity="0.9" stroke="#ddd" stroke-width="1"/>
  <path d="M112,248 Q122,248 122,256 Q122,264 112,264" fill="none" stroke="#ccc" stroke-width="2"/>
  <!-- Steam -->
  <path d="M96,236 Q98,228 96,220" stroke="#ccc" stroke-width="1.5" fill="none" opacity="0.6"/>
  <path d="M104,234 Q106,224 104,216" stroke="#ccc" stroke-width="1.5" fill="none" opacity="0.6"/>
  <!-- Medicine bottle -->
  <rect x="118" y="238" width="14" height="24" rx="4" fill="#E8845A"/>
  <rect x="119" y="234" width="12" height="6" rx="2" fill="#d4704a"/>

  <!-- ── Elderly father (seated) ── -->
  <!-- Chair -->
  <rect x="180" y="200" width="160" height="130" rx="14" fill="#5c4a3a"/>
  <rect x="168" y="260" width="30" height="90" rx="12" fill="#5c4a3a"/>
  <rect x="322" y="260" width="30" height="90" rx="12" fill="#5c4a3a"/>
  <rect x="172" y="315" width="20" height="30" rx="4" fill="#4a3828"/>
  <rect x="328" y="315" width="20" height="30" rx="4" fill="#4a3828"/>
  <!-- Body -->
  <ellipse cx="260" cy="300" rx="60" ry="35" fill="#6b5038"/>
  <rect x="220" y="245" width="80" height="70" rx="14" fill="#6b5038"/>
  <!-- Arms -->
  <path d="M220,280 Q185,295 172,310" stroke="#5e4530" stroke-width="20" fill="none" stroke-linecap="round"/>
  <path d="M300,280 Q335,295 348,312" stroke="#5e4530" stroke-width="20" fill="none" stroke-linecap="round"/>
  <ellipse cx="170" cy="315" rx="13" ry="9" fill="#9A6428"/>
  <ellipse cx="350" cy="316" rx="13" ry="9" fill="#9A6428"/>
  <!-- Neck -->
  <rect x="247" y="232" width="26" height="20" rx="6" fill="#9A6428"/>
  <!-- Head -->
  <ellipse cx="260" cy="210" rx="34" ry="38" fill="#9A6428"/>
  <!-- Ears -->
  <ellipse cx="226" cy="212" rx="6.5" ry="9" fill="#8B6428"/>
  <ellipse cx="294" cy="212" rx="6.5" ry="9" fill="#8B6428"/>
  <!-- Salt-and-pepper hair -->
  <ellipse cx="260" cy="178" rx="32" ry="14" fill="#7a6a60"/>
  <rect x="228" y="180" width="64" height="12" rx="7" fill="#7a6a60"/>
  <!-- Eyes (warm, slightly tired — elder) -->
  <ellipse cx="247" cy="205" rx="6" ry="5" fill="white"/>
  <ellipse cx="273" cy="205" rx="6" ry="5" fill="white"/>
  <circle cx="247" cy="205" r="3.5" fill="#2a1208"/>
  <circle cx="273" cy="205" r="3.5" fill="#2a1208"/>
  <!-- Eyebrows — elder -->
  <path d="M238,196 Q247,191 254,195" stroke="#6a5040" stroke-width="2" fill="none" stroke-linecap="round"/>
  <path d="M266,195 Q273,191 282,196" stroke="#6a5040" stroke-width="2" fill="none" stroke-linecap="round"/>
  <!-- Nose -->
  <ellipse cx="260" cy="218" rx="5" ry="3.5" fill="rgba(100,60,20,0.28)"/>
  <!-- Warm gentle smile -->
  <path d="M249,228 Q260,236 271,228" stroke="rgba(100,60,20,0.38)" stroke-width="2" fill="none" stroke-linecap="round"/>

  <!-- ── Salome / daughter (kneeling/leaning beside) ── -->
  <!-- Body -->
  <ellipse cx="380" cy="330" rx="50" ry="28" fill="#7c3aed" opacity="0.9"/>
  <rect x="352" y="248" width="72" height="92" rx="14" fill="#7c3aed"/>
  <!-- Arm reaching to father (tender gesture) -->
  <path d="M352,270 Q310,290 300,308" stroke="#6a30cc" stroke-width="22" fill="none" stroke-linecap="round"/>
  <ellipse cx="296" cy="314" rx="14" ry="10" fill="#C68642"/>
  <!-- Right arm down -->
  <path d="M424,270 Q438,305 436,335" stroke="#6a30cc" stroke-width="20" fill="none" stroke-linecap="round"/>
  <ellipse cx="436" cy="340" rx="13" ry="9" fill="#C68642"/>
  <!-- Neck -->
  <rect x="371" y="234" width="26" height="22" rx="6" fill="#C68642"/>
  <!-- Head -->
  <ellipse cx="384" cy="212" rx="34" ry="38" fill="#C68642"/>
  <!-- Ears -->
  <ellipse cx="350" cy="214" rx="6.5" ry="9" fill="#B57A35"/>
  <ellipse cx="418" cy="214" rx="6.5" ry="9" fill="#B57A35"/>
  <!-- Natural hair, updo -->
  <ellipse cx="384" cy="182" rx="30" ry="16" fill="#1a0a00"/>
  <circle cx="384" cy="168" rx="14" ry="14" fill="#1a0a00"/>
  <ellipse cx="360" cy="196" rx="9" ry="12" fill="#1a0a00"/>
  <ellipse cx="408" cy="196" rx="9" ry="12" fill="#1a0a00"/>
  <!-- Eyes (Salome — focused, caring) -->
  <ellipse cx="372" cy="207" rx="6.5" ry="5.5" fill="white"/>
  <ellipse cx="396" cy="207" rx="6.5" ry="5.5" fill="white"/>
  <circle cx="372" cy="207" r="4" fill="#1a0a00"/>
  <circle cx="396" cy="207" r="4" fill="#1a0a00"/>
  <circle cx="373.5" cy="205.5" r="1.3" fill="white" opacity="0.9"/>
  <circle cx="397.5" cy="205.5" r="1.3" fill="white" opacity="0.9"/>
  <!-- Eyebrows -->
  <path d="M363,197 Q372,191 379,196" stroke="#1a0a00" stroke-width="2.5" fill="none" stroke-linecap="round"/>
  <path d="M389,196 Q396,191 405,197" stroke="#1a0a00" stroke-width="2.5" fill="none" stroke-linecap="round"/>
  <!-- Nose -->
  <ellipse cx="384" cy="220" rx="5" ry="3.5" fill="rgba(100,60,20,0.3)"/>
  <!-- Empathetic smile -->
  <path d="M373,232 Q384,242 395,232" stroke="rgba(100,60,20,0.45)" stroke-width="2" fill="none" stroke-linecap="round"/>

  <!-- ── Quote / story caption ── -->
  <rect x="20" y="358" width="440" height="46" rx="10" fill="rgba(0,53,128,0.82)"/>
  <text x="40" y="377" font-family="Georgia,serif" font-style="italic" font-size="11.5" fill="rgba(255,255,255,0.9)">"When my father needed care at home, I couldn't find a system that worked.</text>
  <text x="40" y="393" font-family="Georgia,serif" font-style="italic" font-size="11.5" fill="rgba(255,255,255,0.9)">I built E-Vive so no family goes through that alone." — Salome Mburu</text>
</g>
</svg>